<?xml version="1.0" encoding="utf-8"?>
<!-- Generator: Adobe Illustrator 15.0.0, SVG Export Plug-In . SVG Version: 6.00 Build 0)  -->
<!DOCTYPE svg PUBLIC "-//W3C//DTD SVG 1.1//EN" "http://www.w3.org/Graphics/SVG/1.1/DTD/svg11.dtd">
<svg version="1.1" id="Layer_1" xmlns="http://www.w3.org/2000/svg" xmlns:xlink="http://www.w3.org/1999/xlink" x="0px" y="0px"
	 width="281.195px" height="238.217px" viewBox="0 0 281.195 238.217" enable-background="new 0 0 281.195 238.217"
	 xml:space="preserve">
<g>
	<g>
		<path fill="#5F5647" d="M183.806,1.895c12.799,0,24.363,5.784,32.718,15.134c8.238,9.225,13.336,21.92,13.336,35.902
			c0,13.981-5.098,26.678-13.336,35.902c-8.354,9.351-19.919,15.134-32.718,15.134c-12.797,0-24.362-5.784-32.717-15.134
			c-8.239-9.224-13.336-21.921-13.336-35.902c0-13.982,5.097-26.678,13.336-35.902C159.443,7.679,171.009,1.895,183.806,1.895
			L183.806,1.895z M210.115,22.762c-6.752-7.559-16.056-12.234-26.31-12.234c-10.253,0-19.558,4.675-26.31,12.234
			c-6.863,7.686-11.111,18.349-11.111,30.17s4.248,22.484,11.111,30.169c6.752,7.559,16.057,12.234,26.31,12.234
			c10.254,0,19.558-4.676,26.31-12.234c6.864-7.685,11.111-18.349,11.111-30.169S216.979,30.447,210.115,22.762z"/>
		<path fill="#5F5647" d="M274.109,236.217H93.502h-4.488l0.188-4.485c2.65-63.257,26.087-104.902,55.557-124.079
			c12.484-8.125,26.064-12.245,39.66-12.304c13.615-0.06,27.181,3.946,39.611,12.072c28.866,18.869,51.689,60.108,54.379,124.311
			l0.188,4.485H274.109L274.109,236.217z M98.031,227.583h171.551c-3.385-58.48-24.176-95.888-50.273-112.947
			c-11.006-7.193-22.939-10.741-34.857-10.688c-11.937,0.052-23.923,3.709-35.006,10.921
			C122.784,132.219,101.421,169.976,98.031,227.583z"/>
		<path fill="#5F5647" d="M82.776,41.647c10.961,0,20.878,4.668,28.051,12.217c7.121,7.493,11.524,17.821,11.524,29.206
			c0,11.386-4.404,21.714-11.524,29.207c-7.172,7.548-17.089,12.218-28.051,12.218s-20.879-4.67-28.052-12.218
			C47.604,104.783,43.2,94.456,43.2,83.07c0-11.385,4.405-21.712,11.524-29.206C61.897,46.315,71.814,41.647,82.776,41.647
			L82.776,41.647z M104.588,59.799c-5.588-5.881-13.301-9.52-21.813-9.52c-8.512,0-16.224,3.638-21.813,9.52
			c-5.641,5.937-9.13,14.163-9.13,23.271c0,9.109,3.489,17.335,9.13,23.272c5.589,5.881,13.302,9.519,21.813,9.519
			s16.224-3.637,21.813-9.519c5.641-5.937,9.13-14.163,9.13-23.272C113.719,73.962,110.229,65.735,104.588,59.799z"/>
		<path fill="#5F5647" d="M93.502,236.217H6.488H2l0.188-4.485c1.722-41.106,13.787-71.458,30.557-90.712
			c7.544-8.661,16.073-15.108,25.083-19.312c9.093-4.244,18.64-6.18,28.136-5.782c13.73,0.575,27.292,5.991,39.152,16.321
			l2.956,2.574l-2.298,3.191c-7.966,11.063-14.703,24.804-19.6,41.208c-4.582,15.346-7.538,32.969-8.371,52.849l-0.173,4.147H93.502
			L93.502,236.217z M11.022,227.583h78.386c1.083-18.988,4.058-35.935,8.502-50.823c4.698-15.736,11.053-29.227,18.571-40.445
			c-9.596-7.43-20.205-11.343-30.856-11.789c-8.142-0.341-16.338,1.325-24.156,4.972c-7.901,3.688-15.452,9.423-22.216,17.188
			C24.26,163.899,13.299,190.929,11.022,227.583z"/>
	</g>
	<path fill-rule="evenodd" clip-rule="evenodd" fill="#B2EBF2" d="M39.253,146.685c-14.994,17.214-25.955,44.244-28.231,80.898
		h78.386c0.054-0.943,0.113-1.881,0.175-2.814c1.207-17.853,4.103-33.861,8.327-48.009c1.855-6.215,3.969-12.078,6.311-17.591
		c3.585-8.454,7.704-16.078,12.246-22.865c-9.591-7.422-20.195-11.332-30.842-11.778c-0.64-0.025-1.281-0.041-1.922-0.043
		c-0.309,0.008-0.617,0.012-0.927,0.012c-0.085,0-0.169-0.001-0.254-0.002c-7.114,0.147-14.228,1.82-21.053,5.005
		C53.568,133.185,46.017,138.92,39.253,146.685z"/>
	<path fill-rule="evenodd" clip-rule="evenodd" fill="#E6EE9C" d="M125.772,138.013c-7.966,11.063-14.703,24.804-19.6,41.208
		c-3.317,11.111-5.782,23.416-7.207,36.906c-0.392,3.728-0.705,7.546-0.935,11.456h171.551
		c-3.385-58.48-24.176-95.888-50.273-112.947c-10.813-7.067-22.521-10.615-34.228-10.688c-0.424,0.013-0.85,0.019-1.275,0.019
		c-0.174,0-0.348-0.001-0.521-0.002c-11.552,0.276-23.117,3.926-33.84,10.904c-7.89,5.132-15.315,12.054-21.947,20.748
		L125.772,138.013z"/>
	<path fill-rule="evenodd" clip-rule="evenodd" fill="#FFCCBC" d="M146.385,52.932c0,11.821,4.248,22.484,11.111,30.169
		c6.752,7.559,16.057,12.234,26.31,12.234c10.254,0,19.558-4.676,26.31-12.234c6.864-7.685,11.111-18.349,11.111-30.169
		s-4.247-22.484-11.111-30.17c-6.752-7.559-16.056-12.234-26.31-12.234c-10.253,0-19.558,4.675-26.31,12.234
		C150.633,30.447,146.385,41.111,146.385,52.932z"/>
	<path fill-rule="evenodd" clip-rule="evenodd" fill="#FFCCBC" d="M60.963,59.799c-5.641,5.937-9.13,14.163-9.13,23.271
		c0,9.109,3.489,17.335,9.13,23.272c5.589,5.881,13.302,9.519,21.813,9.519s16.224-3.637,21.813-9.519
		c5.641-5.937,9.13-14.163,9.13-23.272c0-9.108-3.489-17.334-9.13-23.271c-5.588-5.881-13.301-9.52-21.813-9.52
		C74.264,50.279,66.552,53.917,60.963,59.799z"/>
	<path fill-rule="evenodd" clip-rule="evenodd" fill="#C09A8E" d="M211.544,52.932c0,13.981-5.098,26.678-13.338,35.902
		c-1.722,1.93-3.582,3.706-5.562,5.312c6.714-1.84,12.723-5.729,17.471-11.044c6.864-7.685,11.111-18.349,11.111-30.169
		s-4.247-22.484-11.111-30.17c-4.748-5.314-10.757-9.204-17.471-11.045c1.979,1.606,3.84,3.383,5.562,5.313
		C206.446,26.254,211.544,38.95,211.544,52.932z"/>
	<path fill-rule="evenodd" clip-rule="evenodd" fill="#ADB277" d="M269.582,227.583c-3.385-58.48-24.176-95.888-50.273-112.947
		c-4.036-2.637-8.197-4.785-12.437-6.445c27.694,18.785,49.586,58.406,53.018,119.392H269.582z"/>
	<path fill-rule="evenodd" clip-rule="evenodd" fill="#C09A8E" d="M113.719,83.07c0-9.108-3.489-17.334-9.13-23.271
		c-4.052-4.265-9.222-7.351-15.004-8.724c1.02,0.878,1.996,1.81,2.927,2.789c7.12,7.493,11.524,17.821,11.524,29.206
		c0,11.386-4.404,21.714-11.524,29.207c-0.931,0.981-1.907,1.911-2.927,2.79c5.782-1.374,10.952-4.459,15.004-8.724
		C110.229,100.405,113.719,92.179,113.719,83.07z"/>
	<path fill-rule="evenodd" clip-rule="evenodd" fill="#87B2B6" d="M89.583,224.769c0.005-0.073,0.01-0.146,0.015-0.219
		C89.593,224.623,89.588,224.696,89.583,224.769L89.583,224.769z M89.598,224.55c1.75-25.521,6.97-47.327,14.612-65.355
		c-0.012,0.029-0.024,0.057-0.037,0.086c-2.323,5.479-4.421,11.307-6.264,17.479c-4.202,14.074-7.09,29.991-8.308,47.731
		C89.601,224.511,89.6,224.531,89.598,224.55L89.598,224.55z M107.457,138.013c-7.965,11.063-14.702,24.804-19.6,41.208
		c-3.317,11.111-5.783,23.416-7.206,36.906c-0.393,3.728-0.706,7.546-0.936,11.456h9.692c0.054-0.943,0.113-1.881,0.175-2.814
		c0.005-0.073,0.01-0.146,0.015-0.219c1.216-17.765,4.105-33.699,8.312-47.79c1.853-6.205,3.963-12.061,6.3-17.565
		c0.003-0.009,0.007-0.018,0.01-0.025s0.007-0.017,0.011-0.024c3.583-8.444,7.697-16.061,12.235-22.841
		c-1.652-1.279-3.334-2.453-5.042-3.523c-0.757,0.924-1.505,1.869-2.243,2.837L107.457,138.013z"/>
</g>
</svg>
