<?xml version="1.0" encoding="utf-8"?>
<!-- Generator: Adobe Illustrator 19.0.0, SVG Export Plug-In . SVG Version: 6.00 Build 0)  -->
<svg version="1.1" id="Layer_1" xmlns="http://www.w3.org/2000/svg" xmlns:xlink="http://www.w3.org/1999/xlink" x="0px" y="0px"
	 viewBox="972 -41.6 3252 694.6" style="enable-background:new 972 -41.6 3252 694.6;" xml:space="preserve">
<style type="text/css">
	.st0{fill:#238ECD;}
	.st1{fill:url(#SVGID_1_);}
	.st2{fill:#232B62;}
	.st3{fill:url(#SVGID_2_);}
</style>
<title>xds</title>
<path class="st0" d="M1169.8,459.9c-84.4-84.4-84.4-221.3,0-305.7c84.4-84.4,221.3-84.4,305.7,0l86-86
	c-131.9-131.9-345.8-131.9-477.7,0s-131.9,345.8,0,477.7s345.8,131.9,477.7,0l-86-86C1391.1,544.4,1254.3,544.4,1169.8,459.9z"/>
<path class="st0" d="M1953.3,459.8l-86,86c131.9,131.9,345.8,131.9,477.7,0s131.9-345.8,0-477.7c-131.9-131.9-345.8-131.9-477.7,0
	l86,86c84.4-84.4,221.3-84.4,305.7,0c84.4,84.4,84.4,221.3,0,305.7C2174.7,544.3,2037.9,544.3,1953.3,459.8z"/>
<linearGradient id="SVGID_1_" gradientUnits="userSpaceOnUse" x1="19450.543" y1="1202.6807" x2="19450.543" y2="1770.1553" gradientTransform="matrix(-1 0 0 -1 21581.3574 1757.6978)">
	<stop  offset="0" style="stop-color:#034EA2"/>
	<stop  offset="1" style="stop-color:#00AEEF"/>
</linearGradient>
<path class="st1" d="M1867.3,68.1c288.3-201.7,521.4,16.7,526.9,202.3c5.6,194.7-215.8,414.5-440.9,189.5
	c84.6,82.5,222,83.8,305.7-0.1c84.4-84.4,84.4-221.3,0-305.7c-84.4-84.4-221.3-84.4-305.7,0L1867.3,68.1z"/>
<polygon class="st2" points="1953.3,459.8 1953.3,545.8 1867.3,545.8 1475.7,154.1 1475.7,68.1 1561.7,68.1 "/>
<linearGradient id="SVGID_2_" gradientUnits="userSpaceOnUse" x1="1298.1935" y1="58.6821" x2="1298.1935" y2="627.6487" gradientTransform="matrix(1 0 0 1 0 -1.2722)">
	<stop  offset="0" style="stop-color:#034EA2"/>
	<stop  offset="1" style="stop-color:#00AEEF"/>
</linearGradient>
<path class="st3" d="M1561.7,545.8c-288.3,201.7-521.4-16.7-526.9-202.3c-5.6-194.7,213.8-416.5,438.8-191.3
	c-84.6-82.5-220-81.8-303.8,1.9c-84.4,84.4-84.4,221.3,0,305.7c84.4,84.4,221.3,84.4,305.7,0L1561.7,545.8z"/>
<polygon class="st2" points="1620.9,314.7 1706.9,400.7 1561.7,545.8 1475.7,545.8 1475.7,459.9 "/>
<polygon class="st2" points="1953.4,68.1 1953.4,154.1 1808.2,299.3 1722.2,213.3 1867.3,68.1 "/>
<path class="st2" d="M2470,487.5l122.9-190.3l-119.3-176.8l99.2,0.3l74.2,108.2l73-108.2l103.6-0.5l-125.4,175.7l124.5,191.9
	l-100-0.3L2645,369.1l-81.9,118.4L2470,487.5L2470,487.5z"/>
<path class="st2" d="M2960.1,382.9V222.4h83.1v160.5c1.4,24.3,11.9,36.8,31.3,37.6h4.7c21-0.8,31.6-15.2,31.6-43.8V222.4h82.9v154.3
	c0,75-38.2,114.7-114.4,118.8h-4.7c-30.4-1.7-54.8-9-73-21.8c-18.1,12.8-42.3,20.1-72.7,21.8h-4.7c-76.2-4.1-114.4-43.8-114.4-118.8
	V222.4h82.8v154.3c0,28.5,10.5,43.1,31.6,43.8h4.7C2948.3,419.7,2958.7,407.3,2960.1,382.9z"/>
<path class="st2" d="M3428.2,479.4c-5.5,2.4-9.6,4.1-12.2,4.9c-43.2,16.4-91.3,13.7-132.2-7.8c-22.7-11.7-42-29.2-56-50.8
	c-24.3-38.8-27.7-87.3-8.8-129.2c8.1-17,19.3-32.4,33.5-45c14.1-12.9,30.7-22.8,48.7-29.2c18.4-7,37.9-10.7,57.5-10.7
	c19.6,0,39.1,3.5,57.5,10.3c18,6.5,34.5,16.6,48.7,29.5c14.1,12.6,25.6,28,33.6,45c8.2,17.6,12.3,37,12.2,56.4l-0.3,135l-82-0.8
	v-7.8H3428.2z M3299,319.6c-6.4,10-9.6,21.6-9.6,33.5c0,18.3,6.8,34.1,20.7,47.3c27.1,26.2,70,26.2,97.1,0
	c13.8-13.2,20.7-29.1,20.7-47.3c0-11.9-3.2-23.4-9.6-33.5c-6.4-10.2-15.2-18.6-25.6-24.3c-21.1-11.7-46.9-11.7-68.2,0
	C3314.1,301.2,3305.3,309.6,3299,319.6z"/>
<path class="st2" d="M3659.3,291.2c-5-3.2-10.8-4.9-16.9-4.9h-4.7c-21,0.9-31.6,15.5-31.6,44v156.9h-82.6V330.3
	c0-75.5,38.2-115,114.4-118.8h4.7c5.6,0.2,11.3,0.8,16.9,1.5v78.2H3659.3z"/>
<path class="st2" d="M3975.9,355.2c0.2,25.3-7.2,50.1-21,71.2c-13.8,21.6-33.2,39.1-56,50.8c-40.9,21.6-89.2,24.6-132.4,8.1
	c-18.1-6.7-34.7-16.7-49-29.8c-14.1-12.8-25.6-28.3-33.6-45.5c-16-35.9-15.8-76.8,0.3-112.6c7.9-17.2,19.3-32.7,33.5-45.3
	c14.3-12.9,30.9-23.1,49-29.8c37-13.4,77.6-13.4,114.7,0l5.9,2.6l5.9,2.6V118.2l82.6,0.3L3975.9,355.2L3975.9,355.2z M3893.5,353.4
	c0.2-11.7-3.2-23.3-9.6-33.2c-6.4-10.2-15.2-18.6-25.6-24.3c-10.3-5.9-22.1-9.1-33.9-9.1c-12,0-23.7,3-34.2,9.1
	c-10.5,5.8-19.3,14.1-25.6,24.3c-6.4,9.9-9.7,21.5-9.6,33.2c0,18.4,6.8,34.4,20.7,47.6c26.9,26.6,70.1,26.6,97.1,0
	C3886.5,387.6,3893.5,371.8,3893.5,353.4L3893.5,353.4z"/>
<path class="st2" d="M4030.8,403.8c16.4,16.4,36.4,24.6,60.1,24.6c24.6,0,37-7.3,37-21.8c0-7.6-6.8-13.2-20.4-16.9
	c-9.7-2.3-25.1-6.1-46.1-11.7c-16.4-4.1-31.3-12.8-43.2-24.8c-11.6-11.9-17.3-30.3-17.3-54.9c0-19,4.7-35,14.3-48.1
	c9.6-13.1,22.5-23.1,37.6-29.1c16.4-6.5,33.9-9.7,51.6-9.6c10.8,0,21.6,1.5,32.1,4.4c11,3.3,21.6,7.8,31.6,13.4
	c9.7,5.3,18.7,11.7,26.9,19.2l-45.5,45.3c-12.5-9.7-27.7-15.1-43.5-15.1c-18.9,0-28.1,5.3-28.1,15.8c0,9.4,7,16.1,21,19.9
	c15.4,4.1,30.7,8.1,46.4,11.7c16.1,3.8,31,12,42.8,23.9c11.6,11.7,17.3,30.3,17.3,55.4c0,18.9-5,35-15.1,48.7
	c-10.2,13.8-24,24.6-40.2,30.7c-16.4,7-34.1,10.7-52,10.7c-13.7,0.2-27.2-1.1-40.6-3.7c-11.9-2.1-23.3-5.9-33.9-11.4
	c-12-6.1-23.4-13.2-34.2-21.5L4030.8,403.8z"/>
</svg>
