<?xml version="1.0" encoding="utf-8"?>
<!-- Generator: Adobe Illustrator 19.0.0, SVG Export Plug-In . SVG Version: 6.00 Build 0)  -->
<svg version="1.1" id="Layer_1" xmlns="http://www.w3.org/2000/svg" xmlns:xlink="http://www.w3.org/1999/xlink" x="0px" y="0px"
	 viewBox="1052 -41.6 2736 694.6" style="enable-background:new 1052 -41.6 2736 694.6;" xml:space="preserve">
<style type="text/css">
	.st0{fill:#238ECD;}
	.st1{fill:url(#SVGID_1_);}
	.st2{fill:#232B62;}
	.st3{fill:url(#SVGID_2_);}
</style>
<title>xds</title>
<path class="st0" d="M1242.1,462.9c-86.8-86.8-86.8-227.5,0-314.3c86.8-86.8,227.5-86.8,314.3,0l88.4-88.4
	c-135.6-135.6-355.5-135.6-491.1,0s-135.6,355.5,0,491.1s355.5,135.6,491.1,0l-88.4-88.4C1469.6,549.7,1328.9,549.7,1242.1,462.9z"
	/>
<path class="st0" d="M2047.5,462.8l-88.4,88.4c135.6,135.6,355.5,135.6,491.1,0c135.6-135.6,135.6-355.5,0-491.1
	c-135.6-135.6-355.5-135.6-491.1,0l88.4,88.4c86.8-86.8,227.5-86.8,314.3,0c86.8,86.8,86.8,227.5,0,314.3
	C2275.1,549.6,2134.4,549.6,2047.5,462.8z"/>
<linearGradient id="SVGID_1_" gradientUnits="userSpaceOnUse" x1="15463.374" y1="-586.2981" x2="15463.374" y2="-1169.646" gradientTransform="matrix(-1 0 0 1 17693.3574 1146.8977)">
	<stop  offset="0" style="stop-color:#034EA2"/>
	<stop  offset="1" style="stop-color:#00AEEF"/>
</linearGradient>
<path class="st1" d="M1959.1,60.1c296.4-207.3,536,17.2,541.6,208c5.8,200.1-221.8,426.1-453.2,194.8c87,84.8,228.2,86.1,314.3-0.1
	c86.8-86.8,86.8-227.5,0-314.3c-86.8-86.8-227.5-86.8-314.3,0L1959.1,60.1z"/>
<polygon class="st2" points="2047.5,462.8 2047.5,551.2 1959.1,551.2 1556.5,148.5 1556.5,60.1 1644.9,60.1 "/>
<linearGradient id="SVGID_2_" gradientUnits="userSpaceOnUse" x1="1374.0161" y1="561.5545" x2="1374.0161" y2="-23.3288" gradientTransform="matrix(1 0 0 -1 0 610.7278)">
	<stop  offset="0" style="stop-color:#034EA2"/>
	<stop  offset="1" style="stop-color:#00AEEF"/>
</linearGradient>
<path class="st3" d="M1644.9,551.2c-296.4,207.3-536-17.2-541.6-208c-5.8-200.1,219.8-428.1,451.1-196.7
	c-87-84.8-226.2-84.1-312.3,2c-86.8,86.8-86.8,227.5,0,314.3c86.8,86.8,227.5,86.8,314.3,0L1644.9,551.2z"/>
<polygon class="st2" points="1705.8,313.6 1794.2,402 1644.9,551.2 1556.5,551.2 1556.5,462.9 "/>
<polygon class="st2" points="2047.6,60.1 2047.6,148.5 1898.3,297.8 1809.9,209.4 1959.1,60.1 "/>
<path class="st2" d="M2623.6,429.4l80.8-125.1L2626,188.1l65.2,0.2l48.8,71.1l48-71.1l68.1-0.3l-82.4,115.5l81.8,126.1l-65.7-0.2
	l-51.2-77.8l-53.8,77.8L2623.6,429.4L2623.6,429.4z"/>
<path class="st2" d="M2945.7,360.7V255.2h54.6v105.5c0.9,16,7.8,24.2,20.6,24.7h3.1c13.8-0.5,20.8-10,20.8-28.8V255.2h54.5v101.4
	c0,49.3-25.1,75.4-75.2,78.1h-3.1c-20-1.1-36-5.9-48-14.3c-11.9,8.4-27.8,13.2-47.8,14.3h-3.1c-50.1-2.7-75.2-28.8-75.2-78.1V255.2
	h54.4v101.4c0,18.7,6.9,28.3,20.8,28.8h3.1C2938,384.9,2944.8,376.7,2945.7,360.7z"/>
<path class="st2" d="M3253.4,424.1c-3.6,1.6-6.3,2.7-8,3.2c-28.4,10.8-60,9-86.9-5.1c-14.9-7.7-27.6-19.2-36.8-33.4
	c-16-25.5-18.2-57.4-5.8-84.9c5.3-11.2,12.7-21.3,22-29.6c9.3-8.5,20.2-15,32-19.2c12.1-4.6,24.9-7,37.8-7c12.9,0,25.7,2.3,37.8,6.8
	c11.8,4.3,22.7,10.9,32,19.4c9.3,8.3,16.8,18.4,22.1,29.6c5.4,11.6,8.1,24.3,8,37.1l-0.2,88.7l-53.9-0.5V424.1z M3168.5,319.1
	c-4.2,6.6-6.3,14.2-6.3,22c0,12,4.5,22.4,13.6,31.1c17.8,17.2,46,17.2,63.8,0c9.1-8.7,13.6-19.1,13.6-31.1c0-7.8-2.1-15.4-6.3-22
	c-4.2-6.7-10-12.2-16.8-16c-13.9-7.7-30.8-7.7-44.8,0C3178.4,307,3172.6,312.5,3168.5,319.1z"/>
<path class="st2" d="M3405.3,300.4c-3.3-2.1-7.1-3.2-11.1-3.2h-3.1c-13.8,0.6-20.8,10.2-20.8,28.9v103.1H3316V326.1
	c0-49.6,25.1-75.6,75.2-78.1h3.1c3.7,0.1,7.4,0.5,11.1,1V300.4z"/>
<path class="st2" d="M3613.4,342.5c0.1,16.6-4.7,32.9-13.8,46.8c-9.1,14.2-21.8,25.7-36.8,33.4c-26.9,14.2-58.6,16.2-87,5.3
	c-11.9-4.4-22.8-11-32.2-19.6c-9.3-8.4-16.8-18.6-22.1-29.9c-10.5-23.6-10.4-50.5,0.2-74c5.2-11.3,12.7-21.5,22-29.8
	c9.4-8.5,20.3-15.2,32.2-19.6c24.3-8.8,51-8.8,75.4,0l3.9,1.7l3.9,1.7v-71.8l54.3,0.2V342.5z M3559.2,341.3
	c0.1-7.7-2.1-15.3-6.3-21.8c-4.2-6.7-10-12.2-16.8-16c-6.8-3.9-14.5-6-22.3-6c-7.9,0-15.6,2-22.5,6c-6.9,3.8-12.7,9.3-16.8,16
	c-4.2,6.5-6.4,14.1-6.3,21.8c0,12.1,4.5,22.6,13.6,31.3c17.7,17.5,46.1,17.5,63.8,0C3554.6,363.8,3559.2,353.4,3559.2,341.3
	L3559.2,341.3z"/>
<path class="st2" d="M3649.5,374.4c10.8,10.8,23.9,16.2,39.5,16.2c16.2,0,24.3-4.8,24.3-14.3c0-5-4.5-8.7-13.4-11.1
	c-6.4-1.5-16.5-4-30.3-7.7c-10.8-2.7-20.6-8.4-28.4-16.3c-7.6-7.8-11.4-19.9-11.4-36.1c0-12.5,3.1-23,9.4-31.6
	c6.3-8.6,14.8-15.2,24.7-19.1c10.8-4.3,22.3-6.4,33.9-6.3c7.1,0,14.2,1,21.1,2.9c7.2,2.2,14.2,5.1,20.8,8.8
	c6.4,3.5,12.3,7.7,17.7,12.6l-29.9,29.8c-8.2-6.4-18.2-9.9-28.6-9.9c-12.4,0-18.5,3.5-18.5,10.4c0,6.2,4.6,10.6,13.8,13.1
	c10.1,2.7,20.2,5.3,30.5,7.7c10.6,2.5,20.4,7.9,28.1,15.7c7.6,7.7,11.4,19.9,11.4,36.4c0,12.4-3.3,23-9.9,32
	c-6.7,9.1-15.8,16.2-26.4,20.2c-10.8,4.6-22.4,7-34.2,7c-9,0.1-17.9-0.7-26.7-2.4c-7.8-1.4-15.3-3.9-22.3-7.5
	c-7.9-4-15.4-8.7-22.5-14.1L3649.5,374.4z"/>
</svg>
